{
  "accessors": [
    {
      "bufferView": 1,
      "componentType": 5126,
      "count": 2979,
      "max": [
        10.0,
        10.0,
        50.0
      ],
      "min": [
        -10.0,
        -10.0,
        -44.79999923706055
      ],
      "type": "VEC3"
    },
    {
      "bufferView": 1,
      "byteOffset": 35748,
      "componentType": 5126,
      "count": 2979,
      "max": [
        1.0,
        1.0,
        1.0
      ],
      "min": [
        -1.0,
        -1.0,
        -1.0
      ],
      "type": "VEC3"
    },
    {
      "bufferView": 2,
      "componentType": 5126,
      "count": 2979,
      "max": [
        0.9607843160629272,
        0.7803921699523926,
        0.843137264251709,
        0.0
      ],
      "min": [
        0.0,
        0.5137255191802979,
        0.12156862765550613,
        0.0
      ],
      "type": "VEC4"
    },
    {
      "bufferView": 0,
      "componentType": 5125,
      "count": 16302,
      "type": "SCALAR"
    }
  ],
  "asset": {
    "extras": {
      "author": "efrenr (https://sketchfab.com/efrenr)",
      "license": "CC-BY-4.0 (http://creativecommons.org/licenses/by/4.0/)",
      "source": "https://sketchfab.com/3d-models/linear-1-lp-ac2d4f9b28cf4dc79b17302d89322e80",
      "title": "Linear 1 LP"
    },
    "generator": "Sketchfab-11.70.0",
    "version": "2.0"
  },
  "bufferViews": [
    {
      "buffer": 0,
      "byteLength": 65208,
      "name": "floatBufferViews",
      "target": 34963
    },
    {
      "buffer": 0,
      "byteLength": 71496,
      "byteOffset": 65208,
      "byteStride": 12,
      "name": "floatBufferViews",
      "target": 34962
    },
    {
      "buffer": 0,
      "byteLength": 47664,
      "byteOffset": 136704,
      "byteStride": 16,
      "name": "floatBufferViews",
      "target": 34962
    }
  ],
  "buffers": [
    {
      "byteLength": 184368,
      "uri": "scene.bin"
    }
  ],
  "materials": [
    {
      "name": "lambert2SG.001",
      "pbrMetallicRoughness": {
        "metallicFactor": 0.5,
        "roughnessFactor": 0.5
      }
    }
  ],
  "meshes": [
    {
      "name": "Object_0",
      "primitives": [
        {
          "attributes": {
            "COLOR_0": 2,
            "NORMAL": 1,
            "POSITION": 0
          },
          "indices": 3,
          "material": 0,
          "mode": 4
        }
      ]
    }
  ],
  "nodes": [
    {
      "children": [
        1
      ],
      "matrix": [
        1.0,
        0.0,
        0.0,
        0.0,
        0.0,
        2.220446049250313e-16,
        -1.0,
        0.0,
        0.0,
        1.0,
        2.220446049250313e-16,
        0.0,
        0.0,
        0.0,
        0.0,
        1.0
      ],
      "name": "Sketchfab_model"
    },
    {
      "children": [
        2
      ],
      "name": "root"
    },
    {
      "children": [
        3
      ],
      "matrix": [
        1.0,
        0.0,
        0.0,
        0.0,
        0.0,
        2.220446049250313e-16,
        1.0,
        0.0,
        0.0,
        -1.0,
        2.220446049250313e-16,
        0.0,
        0.0,
        0.0,
        0.0,
        1.0
      ],
      "name": "GLTF_SceneRootNode"
    },
    {
      "children": [
        4
      ],
      "matrix": [
        1.0,
        0.0,
        0.0,
        0.0,
        0.0,
        2.220446049250313e-16,
        -1.0,
        0.0,
        0.0,
        1.0,
        2.220446049250313e-16,
        0.0,
        0.0,
        0.0,
        0.0,
        1.0
      ],
      "name": "_1"
    },
    {
      "children": [
        5
      ],
      "name": "Mesh_Mesh_head_geo.001_lambert2SG.001_0"
    },
    {
      "mesh": 0,
      "name": "Object_5"
    }
  ],
  "scene": 0,
  "scenes": [
    {
      "name": "Sketchfab_Scene",
      "nodes": [
        0
      ]
    }
  ]
}
